<?xml version="1.0" encoding="UTF-8" standalone="no"?>
<!DOCTYPE svg PUBLIC "-//W3C//DTD SVG 1.1//EN" "http://www.w3.org/Graphics/SVG/1.1/DTD/svg11.dtd">
<svg width="100%" height="100%" viewBox="0 0 1024 1024" version="1.1" xmlns="http://www.w3.org/2000/svg" xmlns:xlink="http://www.w3.org/1999/xlink" xml:space="preserve" xmlns:serif="http://www.serif.com/" style="fill-rule:evenodd;clip-rule:evenodd;stroke-linejoin:round;stroke-miterlimit:2;">
    <g transform="matrix(1,0,0,1,-512.000001,-512.000001)">
        <g id="logo">
            <g transform="matrix(3.357377,0,0,3.357377,-129.259016,-1744.157377)">
                <path d="M191,783.099C191,782.355 191,781.611 191,780.867C191,777.368 191.003,773.871 191.025,770.373C191.046,766.8 191.087,763.227 191.184,759.655C191.395,751.871 191.853,744.02 193.237,736.322C194.64,728.513 196.931,721.246 200.542,714.151C204.092,707.177 208.73,700.796 214.263,695.263C219.796,689.73 226.177,685.092 233.151,681.542C240.246,677.931 247.513,675.64 255.322,674.237C263.02,672.853 270.871,672.395 278.655,672.184C282.227,672.087 285.8,672.046 289.373,672.025C292.871,672.003 296.368,672 299.867,672C300.611,672 301.355,672 302.099,672L384.901,672C385.645,672 386.389,672 387.133,672C390.632,672 394.129,672.003 397.627,672.025C401.2,672.046 404.773,672.087 408.345,672.184C416.129,672.395 423.98,672.853 431.678,674.237C439.487,675.64 446.754,677.931 453.849,681.542C460.823,685.092 467.204,689.73 472.737,695.263C478.27,700.796 482.908,707.177 486.458,714.151C490.069,721.246 492.36,728.513 493.764,736.322C495.147,744.02 495.605,751.871 495.816,759.655C495.913,763.227 495.954,766.8 495.975,770.373C495.997,773.87 496,777.366 496,780.863C496,781.608 496,782.353 496,783.099L496,865.901C496,866.647 496,867.392 496,868.137C496,871.634 495.997,875.13 495.975,878.627C495.954,882.2 495.913,885.773 495.816,889.345C495.605,897.129 495.147,904.98 493.764,912.678C492.36,920.487 490.069,927.754 486.458,934.849C482.908,941.823 478.27,948.204 472.737,953.737C467.204,959.27 460.823,963.908 453.849,967.458C446.754,971.069 439.487,973.36 431.678,974.764C423.98,976.147 416.129,976.605 408.345,976.816C404.773,976.913 401.2,976.954 397.627,976.975C394.129,976.997 390.632,977 387.133,977C386.389,977 385.645,977 384.901,977L302.099,977C301.355,977 300.611,977 299.867,977C296.368,977 292.871,976.997 289.373,976.975C285.8,976.954 282.227,976.913 278.655,976.816C270.871,976.605 263.02,976.147 255.322,974.764C247.513,973.36 240.246,971.069 233.151,967.458C226.177,963.908 219.796,959.27 214.263,953.737C208.73,948.204 204.092,941.823 200.542,934.849C196.931,927.754 194.64,920.487 193.237,912.678C191.853,904.98 191.395,897.129 191.184,889.345C191.087,885.773 191.046,882.2 191.025,878.627C191.003,875.129 191,871.632 191,868.133C191,867.389 191,866.645 191,865.901L191,783.099Z" style="fill:url(#_Radial1);"/>
            </g>
            <g transform="matrix(18.70772,0,-4.960825,18.490768,-11129.548856,-15551.527513)">
                <g id="Layer3">
                    <path d="M875.482,891.186L889.521,891.186L889.074,894.587L898.111,887.924L890.826,881.261L890.379,884.661L875.482,884.661L875.482,878.622L890.382,878.622C897.482,878.622 901.332,882.272 901.332,887.972C901.332,891.522 899.882,894.322 897.432,895.722C899.548,896.624 901.122,898.146 902.009,900.131L886.748,900.131L887.273,896.138L877.426,903.394L885.365,910.65L885.89,906.657L902.575,906.657C901.595,911.103 897.859,914.222 891.982,914.222L875.482,914.222L875.482,891.186Z" style="fill:white;"/>
                </g>
            </g>
        </g>
    </g>
    <defs>
        <radialGradient id="_Radial1" cx="0" cy="0" r="1" gradientUnits="userSpaceOnUse" gradientTransform="matrix(191.816406,-192.114258,192.114258,191.816406,191,977)"><stop offset="0" style="stop-color:rgb(251,146,60);stop-opacity:1"/><stop offset="1" style="stop-color:rgb(234,88,12);stop-opacity:1"/></radialGradient>
    </defs>
</svg>
