<svg xmlns="http://www.w3.org/2000/svg" width="544.015" height="495.592" viewBox="0 0 544.015 495.592"><g transform="translate(-527.993 -346.332)"><circle cx="64" cy="64" r="64" transform="translate(527.993 564.731)" fill="#0090a7"/><path d="M1007.937,692.737a63.7,63.7,0,0,1-36.645-11.574l-312-218.385a64,64,0,0,1,73.4-104.864l312,218.385a64.005,64.005,0,0,1-36.756,116.438Z" fill="#006b86"/><path d="M800.036,692.746a64,64,0,0,1-57.826-36.5l-104-218.384a64,64,0,1,1,115.565-55.035l104,218.384a64.029,64.029,0,0,1-57.739,91.533Z" fill="#0090a7"/><path d="M1008.036,692.746a64,64,0,0,1-57.826-36.5l-104-218.384a64,64,0,1,1,115.565-55.035l104,218.384a64.029,64.029,0,0,1-57.739,91.533Z" fill="#004565"/><path d="M639.023,806.713v31.951c0,1.262-.961,2-2.609,2h-6.18c-1.648,0-2.609-.736-2.609-2V807.555c0-8.619-4.12-12.614-13.184-12.614-8.926,0-13.046,3.995-13.046,12.614v31.109c0,1.262-.961,2-2.61,2H592.6c-1.647,0-2.609-.736-2.609-2V807.555c0-8.619-4.257-12.614-13.184-12.614-8.789,0-12.908,3.995-12.908,12.614v31.109c0,1.262-.962,2-2.609,2h-6.18c-1.648,0-2.609-.736-2.609-2V806.713c0-12.506,8.377-19.338,23.62-19.338,9.2,0,15.655,2.418,19.363,7.041h.276c3.708-4.623,10.162-7.041,19.363-7.041C630.646,787.375,639.023,794.207,639.023,806.713Z" fill="#0090a7"/><path d="M699.624,807.238v14.926c0,12.822-9.063,19.76-25.955,19.76-16.754,0-25.817-6.938-25.817-19.76V807.238c0-12.927,9.063-19.863,25.817-19.863C690.561,787.375,699.624,794.311,699.624,807.238Zm-11.4.948c0-9.04-4.532-13.245-14.557-13.245-9.888,0-14.419,4.205-14.419,13.245v13.031c0,8.935,4.531,13.138,14.419,13.138,10.025,0,14.557-4.2,14.557-13.138Z" fill="#0090a7"/><path d="M708.384,806.4c0-12.507,7.827-19.023,22.8-19.023a33.714,33.714,0,0,1,15.244,3.152c1.373.737,1.785,1.682.824,2.838l-2.335,3.049c-.961,1.156-2.2,1.26-3.708.525a21.364,21.364,0,0,0-8.926-2c-8.514,0-12.5,3.68-12.5,11.563v32.16c0,1.262-.962,2-2.609,2h-6.18c-1.648,0-2.609-.736-2.609-2Z" fill="#0090a7"/><path d="M801.6,807.238v8.408c0,1.262-.962,2-2.61,2h-36.8v3.046c0,9.565,5.082,13.664,16.617,13.664a22.734,22.734,0,0,0,13.87-4.308,2.671,2.671,0,0,1,3.708.209l2.747,2.629a1.691,1.691,0,0,1-.138,2.838c-5.493,4.1-12.634,6.2-20.6,6.2-18.127,0-27.6-6.727-27.6-20.391v-14.3c0-12.927,8.926-19.863,25.4-19.863S801.6,794.311,801.6,807.238Zm-10.849.948c0-9.145-4.532-13.245-14.283-13.245s-14.282,4.1-14.282,13.245v2.207h28.565Z" fill="#0090a7"/><path d="M848.622,807.764c0-8.828-4.394-12.823-14.008-12.823s-14.007,3.995-14.007,12.823v30.9c0,1.262-.961,2-2.609,2h-6.18c-1.648,0-2.609-.736-2.609-2V806.818c0-12.611,8.926-19.443,25.405-19.443s25.407,6.832,25.407,19.443v31.846c0,1.262-.961,2-2.61,2h-6.18c-1.647,0-2.609-.736-2.609-2Z" fill="#004565"/><path d="M920.553,807.238v14.926c0,12.822-9.064,19.76-25.955,19.76-16.754,0-25.818-6.938-25.818-19.76V807.238c0-12.927,9.064-19.863,25.818-19.863C911.489,787.375,920.553,794.311,920.553,807.238Zm-11.4.948c0-9.04-4.531-13.245-14.556-13.245-9.888,0-14.42,4.205-14.42,13.245v13.031c0,8.935,4.532,13.138,14.42,13.138,10.025,0,14.556-4.2,14.556-13.138Z" fill="#004565"/><path d="M932.114,840.662c-1.648,0-2.609-.736-2.609-2V790.633c0-1.262.961-2,2.609-2h6.18c1.647,0,2.609.734,2.609,2v48.031c0,1.262-.962,2-2.609,2Z" fill="#004565"/><path d="M973.655,841.924c-10.712,0-18.4-1.893-24.582-6.1a1.6,1.6,0,0,1-.137-2.732l2.883-2.942a2.768,2.768,0,0,1,3.708-.211c4.258,2.838,10.3,4.414,17.03,4.414,8.377,0,13.183-2.837,13.183-7.988,0-4.623-3.708-6.832-14.969-8.092-15.93-1.787-21.423-6.306-21.423-15.345,0-9.459,9.475-15.555,24.17-15.555,7.552,0,14.832,1.576,19.913,4.414,1.373.84,1.51,1.787.548,2.838l-2.609,2.943q-1.441,1.576-3.708.315a28.071,28.071,0,0,0-13.046-2.944c-9.063,0-13.87,2.838-13.87,7.989,0,4.205,3.57,6.306,14.42,7.463,16.2,1.681,21.973,6.515,21.973,15.974C997.139,835.932,988.074,841.924,973.655,841.924Z" fill="#004565"/><path d="M1053.95,807.238v8.408c0,1.262-.962,2-2.609,2h-36.8v3.046c0,9.565,5.081,13.664,16.616,13.664a22.732,22.732,0,0,0,13.87-4.308,2.671,2.671,0,0,1,3.708.209l2.748,2.629a1.692,1.692,0,0,1-.138,2.838c-5.493,4.1-12.634,6.2-20.6,6.2-18.127,0-27.6-6.727-27.6-20.391v-14.3c0-12.927,8.925-19.863,25.4-19.863S1053.95,794.311,1053.95,807.238Zm-10.848.948c0-9.145-4.533-13.245-14.284-13.245s-14.281,4.1-14.281,13.245v2.207H1043.1Z" fill="#004565"/><circle cx="7.21" cy="7.21" r="7.21" transform="translate(927.994 766.239)" fill="#004565"/></g></svg>