<?xml version="1.0" encoding="UTF-8" standalone="no"?>
<!DOCTYPE svg PUBLIC "-//W3C//DTD SVG 1.1//EN" "http://www.w3.org/Graphics/SVG/1.1/DTD/svg11.dtd">
<svg width="100%" height="100%" viewBox="0 0 4937 1612" version="1.1" xmlns="http://www.w3.org/2000/svg" xmlns:xlink="http://www.w3.org/1999/xlink" xml:space="preserve" xmlns:serif="http://www.serif.com/" style="fill-rule:evenodd;clip-rule:evenodd;stroke-linejoin:round;stroke-miterlimit:2;">
    <g transform="matrix(2.050402,0,0,2.050402,-80.375709,-63.515231)">
        <circle cx="460.5" cy="424.5" r="393.5" style="fill:white;"/>
    </g>
    <g id="logo" transform="matrix(1,0,0,1,0,203)">
        <g transform="matrix(0,-4.166667,-4.166667,0,366.930417,677.869167)">
            <path d="M-36.703,-36.703C-56.974,-36.703 -73.406,-20.27 -73.406,0C-73.406,20.271 -56.974,36.703 -36.703,36.703C-16.432,36.703 0,20.271 0,0C0,-20.27 -16.432,-36.703 -36.703,-36.703" style="fill:rgb(0,144,167);fill-rule:nonzero;"/>
        </g>
        <g transform="matrix(4.166667,0,0,4.166667,1360.838333,135.241667)">
            <path d="M0,203.64C-7.269,203.64 -14.608,201.487 -21.015,197.002L-199.943,71.762C-216.549,60.138 -220.589,37.253 -208.965,20.646C-197.341,4.04 -174.455,0 -157.849,11.624L21.079,136.865C37.685,148.488 41.725,171.374 30.101,187.981C22.962,198.18 11.572,203.64 0,203.64" style="fill:rgb(0,107,134);fill-rule:nonzero;"/>
        </g>
        <g transform="matrix(4.166667,0,0,4.166667,864.055,134.579167)">
            <path d="M0,203.804C-13.717,203.804 -26.872,196.082 -33.163,182.873L-92.805,57.633C-101.521,39.331 -93.75,17.43 -75.449,8.715C-57.148,0 -35.246,7.769 -26.53,26.071L33.112,151.312C41.828,169.613 34.057,191.514 15.756,200.23C10.663,202.655 5.289,203.804 0,203.804" style="fill:rgb(0,144,167);fill-rule:nonzero;"/>
        </g>
        <g transform="matrix(4.166667,0,0,4.166667,1361.076667,134.579167)">
            <path d="M0,203.804C-13.717,203.804 -26.872,196.082 -33.163,182.873L-92.805,57.633C-101.521,39.331 -93.75,17.43 -75.449,8.715C-57.148,0 -35.246,7.769 -26.53,26.071L33.112,151.312C41.828,169.613 34.057,191.514 15.756,200.23C10.663,202.655 5.289,203.804 0,203.804" style="fill:rgb(0,69,101);fill-rule:nonzero;"/>
        </g>
    </g>
    <g id="morenoise-color" serif:id="morenoise color" transform="matrix(1,0,0,1,143.972083,203)">
        <g transform="matrix(4.166667,0,0,4.166667,2205.857083,667.48125)">
            <path d="M0,-20.057L0,23.801C0,25.533 -1.32,26.544 -3.582,26.544L-12.064,26.544C-14.327,26.544 -15.646,25.533 -15.646,23.801L-15.646,-18.901C-15.646,-30.733 -21.302,-36.215 -33.743,-36.215C-45.996,-36.215 -51.652,-30.733 -51.652,-18.901L-51.652,23.801C-51.652,25.533 -52.971,26.544 -55.234,26.544L-63.716,26.544C-65.978,26.544 -67.298,25.533 -67.298,23.801L-67.298,-18.901C-67.298,-30.733 -73.141,-36.215 -85.395,-36.215C-97.459,-36.215 -103.113,-30.733 -103.113,-18.901L-103.113,23.801C-103.113,25.533 -104.434,26.544 -106.695,26.544L-115.178,26.544C-117.44,26.544 -118.759,25.533 -118.759,23.801L-118.759,-20.057C-118.759,-37.223 -107.261,-46.601 -86.337,-46.601C-73.707,-46.601 -64.848,-43.282 -59.758,-36.936L-59.38,-36.936C-54.29,-43.282 -45.431,-46.601 -32.8,-46.601C-11.5,-46.601 0,-37.223 0,-20.057" style="fill:rgb(0,144,167);fill-rule:nonzero;"/>
        </g>
        <g transform="matrix(4.166667,0,0,4.166667,2487.265,666.270833)">
            <path d="M0,-17.745C0,-30.153 -6.22,-35.925 -19.981,-35.925C-33.554,-35.925 -39.774,-30.153 -39.774,-17.745L-39.774,0.143C-39.774,12.408 -33.554,18.177 -19.981,18.177C-6.22,18.177 0,12.408 0,0.143L0,-17.745ZM15.646,-19.045L15.646,1.443C15.646,19.043 3.205,28.566 -19.981,28.566C-42.979,28.566 -55.42,19.043 -55.42,1.443L-55.42,-19.045C-55.42,-36.791 -42.979,-46.311 -19.981,-46.311C3.205,-46.311 15.646,-36.791 15.646,-19.045" style="fill:rgb(0,144,167);fill-rule:nonzero;"/>
        </g>
        <g transform="matrix(4.166667,0,0,4.166667,2602.558333,669.274583)">
            <path d="M0,-20.919C0,-38.088 10.744,-47.032 31.291,-47.032C39.397,-47.032 46.561,-45.589 52.216,-42.705C54.101,-41.694 54.667,-40.396 53.347,-38.809L50.142,-34.624C48.823,-33.037 47.126,-32.895 45.052,-33.903C41.283,-35.635 37.136,-36.646 32.8,-36.646C21.113,-36.646 15.646,-31.595 15.646,-20.774L15.646,23.371C15.646,25.103 14.326,26.113 12.064,26.113L3.582,26.113C1.319,26.113 0,25.103 0,23.371L0,-20.919Z" style="fill:rgb(0,144,167);fill-rule:nonzero;"/>
        </g>
        <g transform="matrix(4.166667,0,0,4.166667,3073.667917,666.270833)">
            <path d="M0,-17.745C0,-30.297 -6.221,-35.925 -19.606,-35.925C-32.989,-35.925 -39.209,-30.297 -39.209,-17.745L-39.209,-14.715L0,-14.715L0,-17.745ZM14.892,-19.045L14.892,-7.504C14.892,-5.772 13.571,-4.761 11.31,-4.761L-39.209,-4.761L-39.209,-0.579C-39.209,12.55 -32.235,18.177 -16.401,18.177C-8.861,18.177 -3.205,16.301 2.638,12.263C4.335,10.963 6.22,11.108 7.728,12.55L11.499,16.159C12.818,17.456 12.818,18.899 11.31,20.054C3.769,25.679 -6.032,28.566 -16.967,28.566C-41.849,28.566 -54.856,19.333 -54.856,0.577L-54.856,-19.045C-54.856,-36.791 -42.603,-46.311 -19.983,-46.311C2.638,-46.311 14.892,-36.791 14.892,-19.045" style="fill:rgb(0,144,167);fill-rule:nonzero;"/>
        </g>
        <g transform="matrix(4.166667,0,0,4.166667,3404.640417,661.46625)">
            <path d="M0,-17.171C0,-29.289 -6.032,-34.772 -19.228,-34.772C-32.422,-34.772 -38.455,-29.289 -38.455,-17.171L-38.455,25.245C-38.455,26.977 -39.775,27.987 -42.036,27.987L-50.519,27.987C-52.782,27.987 -54.101,26.977 -54.101,25.245L-54.101,-18.469C-54.101,-35.78 -41.849,-45.158 -19.228,-45.158C3.393,-45.158 15.646,-35.78 15.646,-18.469L15.646,25.245C15.646,26.977 14.327,27.987 12.064,27.987L3.582,27.987C1.32,27.987 0,26.977 0,25.245L0,-17.171Z" style="fill:rgb(0,69,101);fill-rule:nonzero;"/>
        </g>
        <g transform="matrix(4.166667,0,0,4.166667,3750.85,666.270833)">
            <path d="M0,-17.745C0,-30.153 -6.22,-35.925 -19.981,-35.925C-33.554,-35.925 -39.775,-30.153 -39.775,-17.745L-39.775,0.143C-39.775,12.408 -33.554,18.177 -19.981,18.177C-6.22,18.177 0,12.408 0,0.143L0,-17.745ZM15.646,-19.045L15.646,1.443C15.646,19.043 3.205,28.566 -19.981,28.566C-42.979,28.566 -55.42,19.043 -55.42,1.443L-55.42,-19.045C-55.42,-36.791 -42.979,-46.311 -19.981,-46.311C3.205,-46.311 15.646,-36.791 15.646,-19.045" style="fill:rgb(0,69,101);fill-rule:nonzero;"/>
        </g>
        <g transform="matrix(4.166667,0,0,4.166667,3882.1675,480.52625)">
            <path d="M0,71.413C-2.263,71.413 -3.582,70.402 -3.582,68.67L-3.582,2.74C-3.582,1.008 -2.263,0 0,0L8.483,0C10.744,0 12.064,1.008 12.064,2.74L12.064,68.67C12.064,70.402 10.744,71.413 8.483,71.413L0,71.413Z" style="fill:rgb(0,69,101);fill-rule:nonzero;"/>
        </g>
        <g transform="matrix(4.166667,0,0,4.166667,4119.758333,473.309583)">
            <path d="M0,74.877C-14.704,74.877 -25.26,72.279 -33.743,66.507C-35.251,65.354 -35.251,64.057 -33.932,62.756L-29.973,58.719C-28.465,57.274 -26.768,57.274 -24.884,58.429C-19.039,62.325 -10.745,64.488 -1.508,64.488C9.991,64.488 16.589,60.593 16.589,53.523C16.589,47.177 11.499,44.145 -3.958,42.416C-25.826,39.963 -33.366,33.759 -33.366,21.351C-33.366,8.367 -20.359,0 -0.189,0C10.178,0 20.17,2.163 27.145,6.059C29.03,7.212 29.219,8.512 27.898,9.954L24.316,13.995C22.997,15.437 21.3,15.582 19.227,14.426C14.326,11.828 8.106,10.386 1.319,10.386C-11.122,10.386 -17.72,14.281 -17.72,21.351C-17.72,27.123 -12.819,30.008 2.074,31.595C24.316,33.904 32.235,40.539 32.235,53.523C32.235,66.652 19.792,74.877 0,74.877" style="fill:rgb(0,69,101);fill-rule:nonzero;"/>
        </g>
        <g transform="matrix(4.166667,0,0,4.166667,4516.95125,666.270833)">
            <path d="M0,-17.745C0,-30.297 -6.221,-35.925 -19.606,-35.925C-32.989,-35.925 -39.209,-30.297 -39.209,-17.745L-39.209,-14.715L0,-14.715L0,-17.745ZM14.891,-19.045L14.891,-7.504C14.891,-5.772 13.571,-4.761 11.31,-4.761L-39.209,-4.761L-39.209,-0.579C-39.209,12.55 -32.235,18.177 -16.401,18.177C-8.861,18.177 -3.205,16.301 2.638,12.263C4.335,10.963 6.22,11.108 7.728,12.55L11.499,16.159C12.818,17.456 12.818,18.899 11.31,20.054C3.77,25.679 -6.032,28.566 -16.967,28.566C-41.849,28.566 -54.856,19.333 -54.856,0.577L-54.856,-19.045C-54.856,-36.791 -42.603,-46.311 -19.983,-46.311C2.638,-46.311 14.891,-36.791 14.891,-19.045" style="fill:rgb(0,69,101);fill-rule:nonzero;"/>
        </g>
        <g transform="matrix(0,-4.166667,-4.166667,0,3899.839167,352.424167)">
            <path d="M-9.897,-9.897C-15.363,-9.897 -19.794,-5.466 -19.794,0C-19.794,5.466 -15.363,9.897 -9.897,9.897C-4.431,9.897 0,5.466 0,0C0,-5.466 -4.431,-9.897 -9.897,-9.897" style="fill:rgb(0,69,101);fill-rule:nonzero;"/>
        </g>
    </g>
</svg>
